<svg width="100" height="100" viewBox="0 0 100 100" xmlns="http://www.w3.org/2000/svg">
  <style>
    .logo-letters {
      fill: #307afa;
      font-family: 'Arial', sans-serif;
      font-weight: bold;
    }
    .logo-a {
      fill: #1e3c72;
    }
  </style>
  
  <!-- G letter -->
  <path class="logo-letters" d="M30 50c0-11 9-20 20-20s20 9 20 20v10H50V50h10c0-5.5-4.5-10-10-10s-10 4.5-10 10 4.5 10 10 10c3 0 5.5-1.5 7.5-3.5l7 7C61 77 56 80 50 80c-11 0-20-9-20-20z"/>
  
  <!-- A letter -->
  <path class="logo-a" d="M70 70L60 45 50 70h-5l15-40h5l15 40h-5zm-18-10h16l-8-22z"/>
</svg> 